<svg width="84" height="20" viewBox="0 0 84 20" fill="none" xmlns="http://www.w3.org/2000/svg">
<path d="M0.65625 19V16.9492L2.47266 16.5977V4.35156L0.65625 4V1.9375H2.47266H8.77734C10.082 1.9375 11.207 2.16797 12.1523 2.62891C13.0977 3.08203 13.8242 3.71875 14.332 4.53906C14.8398 5.35156 15.0938 6.30078 15.0938 7.38672C15.0938 8.47266 14.8398 9.42578 14.332 10.2461C13.8242 11.0586 13.0977 11.6914 12.1523 12.1445C11.207 12.5898 10.082 12.8125 8.77734 12.8125H5.89453V16.5977L7.72266 16.9492V19H0.65625ZM5.89453 10.1758H8.77734C9.73047 10.1758 10.4492 9.91797 10.9336 9.40234C11.4258 8.87891 11.6719 8.21484 11.6719 7.41016C11.6719 6.58984 11.4258 5.91406 10.9336 5.38281C10.4492 4.84375 9.73047 4.57422 8.77734 4.57422H5.89453V10.1758ZM21.6562 19.2461C20.3203 19.2461 19.2695 18.8242 18.5039 17.9805C17.7461 17.1289 17.3672 15.8086 17.3672 14.0195V8.73438L15.9727 8.38281V6.32031H17.3672H20.7891V14.043C20.7891 14.9492 20.9453 15.6016 21.2578 16C21.5781 16.3906 22.0586 16.5859 22.6992 16.5859C23.207 16.5859 23.6562 16.4883 24.0469 16.293C24.4375 16.0898 24.7578 15.8047 25.0078 15.4375V8.73438L23.4961 8.38281V6.32031H25.0078H28.4297V16.5977L29.9531 16.9492V19H25.4297L25.1953 17.3945C24.7969 17.9883 24.2969 18.4453 23.6953 18.7656C23.0938 19.0859 22.4141 19.2461 21.6562 19.2461ZM31.4883 19V16.9492L33.1289 16.5977V8.73438L31.3125 8.38281V6.32031H36.3164L36.4453 7.89062L36.4688 8.17188C36.7812 7.48438 37.168 6.96484 37.6289 6.61328C38.0898 6.26172 38.6406 6.08594 39.2812 6.08594C39.4844 6.08594 39.707 6.10547 39.9492 6.14453C40.1914 6.17578 40.4062 6.21875 40.5938 6.27344L40.2305 9.42578L38.5312 9.33203C38.0469 9.30859 37.6523 9.39062 37.3477 9.57812C37.0508 9.76562 36.7852 10.0352 36.5508 10.3867V16.5977L38.1914 16.9492V19H31.4883ZM47.0508 19.2461C46.1055 19.2461 45.2227 19.1562 44.4023 18.9766C43.5898 18.7969 42.8086 18.5391 42.0586 18.2031L42.0234 14.6172H44.4023L44.8594 16.4453C45.125 16.5781 45.4141 16.6836 45.7266 16.7617C46.0469 16.8398 46.4102 16.8789 46.8164 16.8789C47.582 16.8789 48.1211 16.7539 48.4336 16.5039C48.7461 16.2539 48.9023 15.9414 48.9023 15.5664C48.9023 15.2148 48.7344 14.9062 48.3984 14.6406C48.0703 14.3672 47.4102 14.1289 46.418 13.9258C44.918 13.6133 43.8125 13.1289 43.1016 12.4727C42.3906 11.8164 42.0352 10.9766 42.0352 9.95312C42.0352 9.25 42.2109 8.60938 42.5625 8.03125C42.9219 7.45312 43.4648 6.98828 44.1914 6.63672C44.9258 6.28516 45.8633 6.10938 47.0039 6.10938C47.957 6.10938 48.8281 6.20312 49.6172 6.39062C50.4141 6.57031 51.082 6.80859 51.6211 7.10547L51.6562 10.5742H49.2891L48.9258 8.91016C48.7148 8.75391 48.4648 8.63672 48.1758 8.55859C47.8945 8.48047 47.5742 8.44141 47.2148 8.44141C46.6133 8.44141 46.1523 8.5625 45.832 8.80469C45.5117 9.04688 45.3516 9.35938 45.3516 9.74219C45.3516 9.96094 45.4062 10.1641 45.5156 10.3516C45.6328 10.5391 45.8594 10.7148 46.1953 10.8789C46.5312 11.043 47.0195 11.1992 47.6602 11.3477C49.2305 11.707 50.375 12.1875 51.0938 12.7891C51.8125 13.3828 52.1719 14.2188 52.1719 15.2969C52.1719 16.4766 51.7422 17.4297 50.8828 18.1562C50.0312 18.8828 48.7539 19.2461 47.0508 19.2461ZM59.1094 19.2461C57.7734 19.2461 56.7227 18.8242 55.957 17.9805C55.1992 17.1289 54.8203 15.8086 54.8203 14.0195V8.73438L53.4258 8.38281V6.32031H54.8203H58.2422V14.043C58.2422 14.9492 58.3984 15.6016 58.7109 16C59.0312 16.3906 59.5117 16.5859 60.1523 16.5859C60.6602 16.5859 61.1094 16.4883 61.5 16.293C61.8906 16.0898 62.2109 15.8047 62.4609 15.4375V8.73438L60.9492 8.38281V6.32031H62.4609H65.8828V16.5977L67.4062 16.9492V19H62.8828L62.6484 17.3945C62.25 17.9883 61.75 18.4453 61.1484 18.7656C60.5469 19.0859 59.8672 19.2461 59.1094 19.2461ZM68.5781 19V16.9492L70.2305 16.5977V8.73438L68.4023 8.38281V6.32031H73.6523V16.5977L75.293 16.9492V19H68.5781ZM70.1133 3.63672V0.71875H73.6523V3.63672H70.1133ZM81.4219 19.2461C80.2422 19.2461 79.332 18.9219 78.6914 18.2734C78.0586 17.625 77.7422 16.5977 77.7422 15.1914V8.72266H75.9961V6.32031H77.7422V3.21484H81.1523V6.32031H83.4844V8.72266H81.1523V15.1797C81.1523 15.6719 81.2539 16.0234 81.457 16.2344C81.668 16.4453 81.9531 16.5508 82.3125 16.5508C82.5 16.5508 82.7031 16.5391 82.9219 16.5156C83.1406 16.4844 83.3281 16.4531 83.4844 16.4219L83.7773 18.8945C83.4258 18.9961 83.043 19.0781 82.6289 19.1406C82.2227 19.2109 81.8203 19.2461 81.4219 19.2461Z" fill="white"/>
</svg>
